<svg width="9" height="16" viewBox="0 0 9 16" fill="none" xmlns="http://www.w3.org/2000/svg">
<path fill-rule="evenodd" clip-rule="evenodd" d="M0.292787 0.292786C0.480314 0.105315 0.734622 0 0.999786 0C1.26495 0 1.51926 0.105315 1.70679 0.292786L8.70679 7.29279C8.89426 7.48031 8.99957 7.73462 8.99957 7.99979C8.99957 8.26495 8.89426 8.51926 8.70679 8.70679L1.70679 15.7068C1.51818 15.8889 1.26558 15.9897 1.00339 15.9875C0.741188 15.9852 0.490376 15.88 0.304968 15.6946C0.11956 15.5092 0.0143906 15.2584 0.0121121 14.9962C0.00983372 14.734 0.110629 14.4814 0.292787 14.2928L6.58579 7.99979L0.292787 1.70679C0.105316 1.51926 0 1.26495 0 0.999786C0 0.734622 0.105316 0.480314 0.292787 0.292786Z" />
</svg>
