<svg width="16" height="16" viewBox="0 0 16 16" fill="none" xmlns="http://www.w3.org/2000/svg">
<g clip-path="url(#clip0_236_3979)">
<path fill-rule="evenodd" clip-rule="evenodd" d="M11.7068 15.707C11.5193 15.8945 11.265 15.9998 10.9998 15.9998C10.7346 15.9998 10.4803 15.8945 10.2928 15.707L3.29279 8.70699C3.10532 8.51946 3 8.26515 3 7.99999C3 7.73483 3.10532 7.48052 3.29279 7.29299L10.2928 0.29299C10.385 0.197479 10.4954 0.121297 10.6174 0.0688882C10.7394 0.0164792 10.8706 -0.011107 11.0034 -0.0122608C11.1362 -0.0134146 11.2678 0.0118871 11.3907 0.0621679C11.5136 0.112449 11.6253 0.186702 11.7192 0.280595C11.8131 0.374487 11.8873 0.486139 11.9376 0.609036C11.9879 0.731932 12.0132 0.863612 12.012 0.996391C12.0109 1.12917 11.9833 1.26039 11.9309 1.38239C11.8785 1.5044 11.8023 1.61474 11.7068 1.70699L5.41379 7.99999L11.7068 14.293C11.8943 14.4805 11.9996 14.7348 11.9996 15C11.9996 15.2652 11.8943 15.5195 11.7068 15.707Z"/>
</g>
<defs>
<clipPath id="clip0_236_3979">
<rect width="16" height="16" fill="white"/>
</clipPath>
</defs>
</svg>
