<svg width="17" height="17" viewBox="0 0 17 17" fill="none" xmlns="http://www.w3.org/2000/svg">
<path fill-rule="evenodd" clip-rule="evenodd" d="M11.1489 12.2479C10.0233 13.1363 8.60176 13.6666 7.05642 13.6666C3.40521 13.6666 0.445312 10.7067 0.445312 7.05545C0.445312 3.40423 3.40521 0.444336 7.05642 0.444336C10.7076 0.444336 13.6675 3.40423 13.6675 7.05545C13.6675 8.6008 13.1373 10.0223 12.2489 11.148L16.6809 15.58C16.9847 15.8838 16.9847 16.3763 16.6809 16.68C16.3772 16.9837 15.8847 16.9837 15.581 16.68L11.1489 12.2479ZM12.112 7.05545C12.112 9.84755 9.84853 12.111 7.05642 12.111C4.26432 12.111 2.00087 9.84755 2.00087 7.05545C2.00087 4.26334 4.26432 1.99989 7.05642 1.99989C9.84853 1.99989 12.112 4.26334 12.112 7.05545Z" />
</svg>
