<svg width="14" height="14" viewBox="0 0 14 14" fill="none" xmlns="http://www.w3.org/2000/svg">
<path d="M11.1925 0.307808L13.6925 2.80781C13.8098 2.92508 13.8757 3.08414 13.8757 3.25C13.8757 3.41585 13.8098 3.57491 13.6925 3.69218C13.5753 3.80946 13.4162 3.87534 13.2503 3.87534C13.0845 3.87534 12.9254 3.80946 12.8082 3.69218L11.3753 2.25859V13.25C11.3753 13.4158 11.3095 13.5747 11.1923 13.6919C11.0751 13.8091 10.9161 13.875 10.7503 13.875C10.5846 13.875 10.4256 13.8091 10.3084 13.6919C10.1912 13.5747 10.1253 13.4158 10.1253 13.25V2.25859L8.69254 3.69218C8.57526 3.80946 8.4162 3.87534 8.25035 3.87534C8.0845 3.87534 7.92544 3.80946 7.80816 3.69218C7.69088 3.57491 7.625 3.41585 7.625 3.25C7.625 3.08414 7.69088 2.92508 7.80816 2.80781L10.3082 0.307808C10.3662 0.249698 10.4351 0.203598 10.511 0.172146C10.5869 0.140693 10.6682 0.124505 10.7503 0.124505C10.8325 0.124505 10.9138 0.140693 10.9897 0.172146C11.0656 0.203598 11.1345 0.249698 11.1925 0.307808ZM6.19254 11.1922C6.30981 11.0749 6.3757 10.9158 6.3757 10.75C6.37569 10.5841 6.30981 10.4251 6.19254 10.3078C6.07526 10.1905 5.9162 10.1246 5.75035 10.1246C5.5845 10.1246 5.42544 10.1905 5.30816 10.3078L3.87535 11.7414L3.87535 0.749996C3.87535 0.584235 3.8095 0.425263 3.69229 0.308054C3.57508 0.190844 3.41611 0.124996 3.25035 0.124996C3.08459 0.124996 2.92562 0.190844 2.80841 0.308054C2.6912 0.425263 2.62535 0.584235 2.62535 0.749996L2.62535 11.7414L1.19253 10.3078C1.07526 10.1905 0.9162 10.1246 0.750347 10.1246C0.584495 10.1246 0.425435 10.1905 0.30816 10.3078C0.190885 10.4251 0.125 10.5841 0.125 10.75C0.125 10.9158 0.190885 11.0749 0.30816 11.1922L2.80816 13.6922C2.86621 13.7503 2.93514 13.7964 3.01101 13.8278C3.08688 13.8593 3.16821 13.8755 3.25035 13.8755C3.33248 13.8755 3.41381 13.8593 3.48969 13.8278C3.56556 13.7964 3.63449 13.7503 3.69254 13.6922L6.19254 11.1922Z" />
</svg>
